<svg width="329" height="314" viewBox="0 0 329 314" fill="none" xmlns="http://www.w3.org/2000/svg">
<path fill-rule="evenodd" clip-rule="evenodd" d="M0 0H245.969V17H21H12V26V239.955C8.09271 239.327 4.08448 239 0 239V0ZM70.3708 288C62.1855 265.854 43.8445 248.63 21 241.98V26H303V288H70.3708ZM73.0651 297C74.3309 302.462 75 308.153 75 314H329V88.4688H312V288V297H303H73.0651ZM84.5234 180.281L74.8906 207H60.9688L100.062 104.625H111.875L151.039 207H137.188L127.414 180.281H84.5234ZM88.6016 169.172H123.406L105.969 121.289L88.6016 169.172ZM159.617 168.328C159.617 156.656 162.383 147.281 167.914 140.203C173.445 133.078 180.688 129.516 189.641 129.516C198.547 129.516 205.602 132.562 210.805 138.656V99H223.812V207H211.859L211.227 198.844C206.023 205.219 198.781 208.406 189.5 208.406C180.688 208.406 173.492 204.797 167.914 197.578C162.383 190.359 159.617 180.938 159.617 169.312V168.328ZM172.625 169.805C172.625 178.43 174.406 185.18 177.969 190.055C181.531 194.93 186.453 197.367 192.734 197.367C200.984 197.367 207.008 193.664 210.805 186.258V151.312C206.914 144.141 200.938 140.555 192.875 140.555C186.5 140.555 181.531 143.016 177.969 147.938C174.406 152.859 172.625 160.148 172.625 169.805ZM267.219 190.469C267.219 195.635 266.031 199.792 263.656 202.938C261.281 206.062 258.094 207.625 254.094 207.625C249.823 207.625 246.521 206.115 244.188 203.094L243.906 207H238.594V159H244.375V176.906C246.708 174.01 249.927 172.562 254.031 172.562C258.135 172.562 261.354 174.115 263.688 177.219C266.042 180.323 267.219 184.573 267.219 189.969V190.469ZM261.438 189.812C261.438 185.875 260.677 182.833 259.156 180.688C257.635 178.542 255.448 177.469 252.594 177.469C248.781 177.469 246.042 179.24 244.375 182.781V197.406C246.146 200.948 248.906 202.719 252.656 202.719C255.427 202.719 257.583 201.646 259.125 199.5C260.667 197.354 261.438 194.125 261.438 189.812Z" fill="black"/>
</svg>
